# Alias OBJ Model File
# Exported from SketchUp, (c) 2000-2012 Trimble Navigation Limited
# File units = meters

mtllib circle.mtl

g Mesh1 Model

usemtl FrontColor
v -1.83697e-16 0 1
vt 7.23217e-15 -39.3701
vn 0 -1 -0
v -0.156434 0 0.987688
vt 6.15884 -38.8854
v -0.309017 0 0.951057
vt 12.166 -37.4432
v -0.45399 0 0.891007
vt 17.8736 -35.079
v -0.587785 0 0.809017
vt 23.1412 -31.8511
v -0.707107 0 0.707107
vt 27.8388 -27.8388
v -0.809017 0 0.587785
vt 31.8511 -23.1412
v -0.891007 0 0.45399
vt 35.079 -17.8736
v -0.951057 0 0.309017
vt 37.4432 -12.166
v -0.987688 0 0.156434
vt 38.8854 -6.15884
v -1 0 -1.22465e-16
vt 39.3701 4.82144e-15
v -0.987688 0 -0.156434
vt 38.8854 6.15884
v -0.951057 0 -0.309017
vt 37.4432 12.166
v -0.891007 0 -0.45399
vt 35.079 17.8736
v -0.809017 0 -0.587785
vt 31.8511 23.1412
v -0.707107 0 -0.707107
vt 27.8388 27.8388
v -0.587785 0 -0.809017
vt 23.1412 31.8511
v -0.45399 0 -0.891007
vt 17.8736 35.079
v -0.309017 0 -0.951057
vt 12.166 37.4432
v -0.156434 0 -0.987688
vt 6.15884 38.8854
v 6.12323e-17 0 -1
vt -2.41072e-15 39.3701
v 0.156434 0 -0.987688
vt -6.15884 38.8854
v 0.309017 0 -0.951057
vt -12.166 37.4432
v 0.45399 0 -0.891007
vt -17.8736 35.079
v 0.587785 0 -0.809017
vt -23.1412 31.8511
v 0.707107 0 -0.707107
vt -27.8388 27.8388
v 0.809017 0 -0.587785
vt -31.8511 23.1412
v 0.891007 0 -0.45399
vt -35.079 17.8736
v 0.951057 0 -0.309017
vt -37.4432 12.166
v 0.987688 0 -0.156434
vt -38.8854 6.15884
v 1 0 -0
vt -39.3701 0
v 0.987688 0 0.156434
vt -38.8854 -6.15884
v 0.951057 0 0.309017
vt -37.4432 -12.166
v 0.891007 0 0.45399
vt -35.079 -17.8736
v 0.809017 0 0.587785
vt -31.8511 -23.1412
v 0.707107 0 0.707107
vt -27.8388 -27.8388
v 0.587785 0 0.809017
vt -23.1412 -31.8511
v 0.45399 0 0.891007
vt -17.8736 -35.079
v 0.309017 0 0.951057
vt -12.166 -37.4432
v 0.156434 0 0.987688
vt -6.15884 -38.8854
f 1/1/1 2/2/1 3/3/1 4/4/1 5/5/1 6/6/1 7/7/1 8/8/1 9/9/1 10/10/1 11/11/1 12/12/1 13/13/1 14/14/1 15/15/1 16/16/1 17/17/1 18/18/1 19/19/1 20/20/1 21/21/1 22/22/1 23/23/1 24/24/1 25/25/1 26/26/1 27/27/1 28/28/1 29/29/1 30/30/1 31/31/1 32/32/1 33/33/1 34/34/1 35/35/1 36/36/1 37/37/1 38/38/1 39/39/1 40/40/1 

