# Alias OBJ Model File
# Exported from SketchUp, (c) 2000-2012 Trimble Navigation Limited
# File units = meters

mtllib cube.mtl

g Mesh1 Model

usemtl FrontColor
v 2.27689 0 -0.165716
vt -89.6414 6.52424
vn 0 -1 -0
v 2.27689 0 1.43428
vt -89.6414 -56.4679
v -0.173108 0 1.43428
vt 6.81528 -56.4679
v -0.173108 0 -0.165716
vt 6.81528 6.52424
f 1/1/1 2/2/1 3/3/1 4/4/1 

vt -56.4679 0
vn 1 0 -0
vt 6.52424 0
v 2.27689 1.38 -0.165716
vt 6.52424 54.3307
v 2.27689 1.38 1.43428
vt -56.4679 54.3307
f 2/5/2 1/6/2 5/7/2 6/8/2 

vt -89.6414 0
vn 0 0 -1
vt 6.81528 0
v -0.173108 1.38 -0.165716
vt 6.81528 54.3307
vt -89.6414 54.3307
f 1/9/3 4/10/3 7/11/3 5/12/3 

vt -6.52424 0
vn -1 0 -0
vt 56.4679 0
v -0.173108 1.38 1.43428
vt 56.4679 54.3307
vt -6.52424 54.3307
f 4/13/4 3/14/4 8/15/4 7/16/4 

vt -6.81528 0
vn 0 0 1
vt 89.6414 0
vt 89.6414 54.3307
vt -6.81528 54.3307
f 3/17/5 2/18/5 6/19/5 8/20/5 

vt 89.6414 -56.4679
vn 0 1 -0
vt 89.6414 6.52424
vt -6.81528 6.52424
vt -6.81528 -56.4679
f 6/21/6 5/22/6 7/23/6 8/24/6 

